
<svg xmlns="http://www.w3.org/2000/svg" viewBox="0 0 220 140">
  <defs>
    <clipPath id="eyeClip">
      <path d="m 0 72.00 l 27.44 -14.23 l 27.71 -3.86 c 6.12 0.38 18.36 5.05 24.48 9.35 c 5.09 -0.43 15.28 -4.07 20.38 -7.28 c 6.86 2.66 20.58 8.66 27.44 12.00 l 27.71 1.11 c 6.12 -3.94 18.36 -9.10 24.48 -10.32 l 20.38 -18.80 z" />
    </clipPath>
  </defs>

  <!-- YLÄLUOMI -->
  <path d="m 0 72.00 l 27.44 -14.23 l 27.71 -3.86 c 6.12 0.38 18.36 5.05 24.48 9.35 c 5.09 -0.43 15.28 -4.07 20.38 -7.28 " fill="none" stroke="black"/>
  <!-- LUOMIRAKO -->
  <path d="m 0 72.00 l 27.44 -20.23 l 27.71 -9.86 c 6.12 -1.12 18.36 0.55 24.48 3.35 c 5.09 -1.93 15.28 -8.57 20.38 -13.28 " fill="none" stroke="black"/>
  <!-- ALALUOMI -->
  <path d="m 0 72.00 c 6.86 2.66 20.58 8.66 27.44 12.00 l 27.71 1.11 c 6.12 -3.94 18.36 -9.10 24.48 -10.32 l 20.38 -18.80 " fill="none" stroke="black"/>
</svg>
