
<svg xmlns="http://www.w3.org/2000/svg" viewBox="0 0 200 140">

  <defs>
    <clipPath id="eyeClip" clipPathUnits="userSpaceOnUse">
      <path d="m 0 72.00 c 5.05 0.10 15.16 -6.02 20.22 -12.25 l 23.75 4.92 l 27.98 -1.59 l 28.06 6.70  l 0 1" />
      <path d="m 0 72.00 c 5.05 -0.13 15.16 3.99 20.22 8.24 l 23.75 2.77 c 6.99 -0.22 20.98 -3.43 27.98 -6.42 c 7.01 -3.27 21.04 -6.67 28.06 -6.80  l 0 -1" />
    </clipPath>
  </defs>

  <!-- IIRIS -->
  <circle cx="50.00"
          cy="72.00"
          r="22"
          fill="#88aaff"
          clip-path="url(#eyeClip)"/>

  <!-- PUPILLI -->
  <circle cx="50.00"
          cy="72.00"
          r="10"
          fill="black"
          clip-path="url(#eyeClip)"/>

  <!-- YLÄLUOMI -->
  <path d="m 0 72.00 c 5.05 0.10 15.16 -6.02 20.22 -12.25 l 23.75 4.92 l 27.98 -1.59 l 28.06 6.70 " fill="none" stroke="black"/>

  <!-- LUOMIRAKO -->
  <path d="m 0 72.00 c 5.05 -1.40 15.16 -10.52 20.22 -18.25 l 23.75 -1.08 l 27.98 -7.59 l 28.06 0.70 " fill="none" stroke="black"/>

  <!-- ALALUOMI -->
  <path d="m 0 72.00 c 5.05 -0.13 15.16 3.99 20.22 8.24 l 23.75 2.77 c 6.99 -0.22 20.98 -3.43 27.98 -6.42 c 7.01 -3.27 21.04 -6.67 28.06 -6.80 " fill="none" stroke="black"/>

</svg>
